<mxfile host="app.diagrams.net" agent="Mozilla/5.0 (Macintosh; Intel Mac OS X 10_15_7) AppleWebKit/605.1.15 (KHTML, like Gecko) Version/16.3 Safari/605.1.15" version="28.1.0">
  <diagram name="ページ1" id="KIdcXImNKxDVZAPq_Qf_">
    <mxGraphModel dx="1317" dy="772" grid="1" gridSize="10" guides="1" tooltips="1" connect="1" arrows="1" fold="1" page="1" pageScale="1" pageWidth="1169" pageHeight="827" math="0" shadow="0">
      <root>
        <mxCell id="0" />
        <mxCell id="1" parent="0" />
        <mxCell id="iesCrIlnQIS72QN7SZdt-1" value="" style="sketch=0;outlineConnect=0;fontColor=#232F3E;gradientColor=none;fillColor=#232F3D;strokeColor=none;dashed=0;verticalLabelPosition=bottom;verticalAlign=top;align=center;html=1;fontSize=12;fontStyle=0;aspect=fixed;pointerEvents=1;shape=mxgraph.aws4.user;" vertex="1" parent="1">
          <mxGeometry x="143.6620870542684" y="215.56" width="144.41391369512272" height="144.41391369512272" as="geometry" />
        </mxCell>
        <mxCell id="iesCrIlnQIS72QN7SZdt-4" value="" style="outlineConnect=0;dashed=0;verticalLabelPosition=bottom;verticalAlign=top;align=center;html=1;shape=mxgraph.aws3.lambda;fillColor=#F58534;gradientColor=none;" vertex="1" parent="1">
          <mxGeometry x="527.4276213076876" y="195.3125" width="110.47664397676888" height="203.4375" as="geometry" />
        </mxCell>
        <mxCell id="iesCrIlnQIS72QN7SZdt-6" value="" style="sketch=0;outlineConnect=0;fontColor=#232F3E;gradientColor=none;fillColor=#E7157B;strokeColor=none;dashed=0;verticalLabelPosition=bottom;verticalAlign=top;align=center;html=1;fontSize=12;fontStyle=0;aspect=fixed;pointerEvents=1;shape=mxgraph.aws4.cloudwatch_logs;" vertex="1" parent="1">
          <mxGeometry x="865.741655529882" y="230" width="174.784159745207" height="129.97252232561044" as="geometry" />
        </mxCell>
        <mxCell id="iesCrIlnQIS72QN7SZdt-7" value="User" style="text;strokeColor=none;align=center;fillColor=none;html=1;verticalAlign=middle;whiteSpace=wrap;rounded=0;fontSize=30;" vertex="1" parent="1">
          <mxGeometry x="122" y="370.005" width="187.73808780365954" height="109.375" as="geometry" />
        </mxCell>
        <mxCell id="iesCrIlnQIS72QN7SZdt-8" value="" style="edgeStyle=orthogonalEdgeStyle;html=1;endArrow=block;elbow=vertical;startArrow=none;endFill=1;strokeColor=#545B64;rounded=0;entryX=0;entryY=0.5;entryDx=0;entryDy=0;entryPerimeter=0;" edge="1" parent="1" target="iesCrIlnQIS72QN7SZdt-4">
          <mxGeometry width="100" relative="1" as="geometry">
            <mxPoint x="259.1932180103666" y="295.478125" as="sourcePoint" />
            <mxPoint x="403.6071317054893" y="295.478125" as="targetPoint" />
          </mxGeometry>
        </mxCell>
        <mxCell id="iesCrIlnQIS72QN7SZdt-9" value="" style="edgeStyle=orthogonalEdgeStyle;html=1;endArrow=block;elbow=vertical;startArrow=none;endFill=1;strokeColor=#545B64;rounded=0;" edge="1" parent="1">
          <mxGeometry width="100" relative="1" as="geometry">
            <mxPoint x="637.9042652844564" y="295.478125" as="sourcePoint" />
            <mxPoint x="851.2902641603697" y="295.9375" as="targetPoint" />
          </mxGeometry>
        </mxCell>
        <mxCell id="iesCrIlnQIS72QN7SZdt-10" value="Lambda" style="text;strokeColor=none;align=center;fillColor=none;html=1;verticalAlign=middle;whiteSpace=wrap;rounded=0;fontSize=30;" vertex="1" parent="1">
          <mxGeometry x="488.8013407856117" y="370.005" width="187.73808780365954" height="109.375" as="geometry" />
        </mxCell>
        <mxCell id="iesCrIlnQIS72QN7SZdt-11" value="CloudWachtLogs" style="text;strokeColor=none;align=center;fillColor=none;html=1;verticalAlign=middle;whiteSpace=wrap;rounded=0;fontSize=30;" vertex="1" parent="1">
          <mxGeometry x="852.7919121963404" y="370.005" width="187.73808780365954" height="109.375" as="geometry" />
        </mxCell>
      </root>
    </mxGraphModel>
  </diagram>
</mxfile>
